<svg width="118" height="118" viewBox="0 0 118 118" fill="none" xmlns="http://www.w3.org/2000/svg">
<path d="M44.6768 74.7314V90.8741C44.6768 92.6578 43.232 94.1026 41.4483 94.1026C39.6645 94.1026 38.2197 92.6578 38.2197 90.8741V74.7314H44.6768Z" fill="#FDB913"/>
<path d="M28.5341 19.8464H54.3623V48.9032H28.5341V19.8464Z" fill="#FDB913"/>
<path d="M59.2051 92.4884H49.5195V95.7169H59.2051C60.0961 95.7169 60.8193 96.4401 60.8193 97.3312C60.8193 98.2223 60.0961 98.9455 59.2051 98.9455H23.6913C22.8002 98.9455 22.077 98.2223 22.077 97.3312C22.077 96.4401 22.8002 95.7169 23.6913 95.7169H28.5341V92.4884H23.6913C21.0213 92.4884 18.8485 94.6612 18.8485 97.3312C18.8485 100.001 21.0213 102.174 23.6913 102.174H59.2051C61.8751 102.174 64.0479 100.001 64.0479 97.3312C64.0479 94.6612 61.8751 92.4884 59.2051 92.4884Z" fill="white"/>
<path d="M91.4903 24.6893C90.5992 24.6893 89.8761 23.9661 89.8761 23.075V6.93239C89.8761 4.2624 87.7033 2.0896 85.0333 2.0896C82.3633 2.0896 80.1905 4.2624 80.1905 6.93239V29.5321C80.1905 30.4231 79.4673 31.1463 78.5762 31.1463C77.6851 31.1463 76.962 30.4231 76.962 29.5321V13.3894C76.962 10.7194 74.7892 8.54665 72.1192 8.54665H67.2764V5.31813H57.2938C56.6255 3.44397 54.8498 2.0896 52.748 2.0896H30.1483C27.4783 2.0896 25.3056 4.2624 25.3056 6.93239V18.5293C23.4314 19.1976 22.077 20.9732 22.077 23.075V49.6781L28.6325 54.9228C27.593 55.8123 26.9198 57.1166 26.9198 58.5888C26.9198 60.6906 28.2742 62.4663 30.1483 63.1346V69.8886H33.3769V76.3457H49.5195V69.8886H52.748V63.4316H70.5049C74.9554 63.4316 78.5762 59.8108 78.5762 55.3603V48.2866C79.569 47.1517 80.1905 45.6844 80.1905 44.0604C80.1905 40.4994 77.2945 37.6034 73.7334 37.6034C70.1724 37.6034 67.2764 40.4994 67.2764 44.0604C67.2764 45.6844 67.8979 47.1517 68.8906 48.2866V53.746H55.736L60.8193 49.6781V23.075C60.8193 20.9732 59.465 19.1976 57.5908 18.5293V15.0037H67.2764V11.7752H72.1192C73.0102 11.7752 73.7334 12.4984 73.7334 13.3894V29.5321C73.7334 32.2021 75.9062 34.3749 78.5762 34.3749C81.2462 34.3749 83.419 32.2021 83.419 29.5321V6.93239C83.419 6.04132 84.1422 5.31813 85.0333 5.31813C85.9243 5.31813 86.6475 6.04132 86.6475 6.93239V23.075C86.6475 25.745 88.8203 27.9178 91.4903 27.9178H109.247V24.6893H91.4903ZM54.3623 6.93239V18.2322H51.1338V5.31813H52.748C53.6391 5.31813 54.3623 6.04132 54.3623 6.93239ZM47.9052 8.54665H34.9911V5.31813H47.9052V8.54665ZM34.9911 11.7752H47.9052V18.2322H34.9911V11.7752ZM30.1483 5.31813H31.7626V18.2322H28.5341V6.93239C28.5341 6.04132 29.2573 5.31813 30.1483 5.31813ZM26.9198 21.4608H55.9765C56.8676 21.4608 57.5908 22.1839 57.5908 23.075V47.289H25.3056V23.075C25.3056 22.1839 26.0287 21.4608 26.9198 21.4608ZM46.291 73.1172H36.6054V69.8886H46.291V73.1172ZM49.5195 66.6601H33.3769V63.4316H49.5195V66.6601ZM73.7334 40.8319C75.514 40.8319 76.962 42.2799 76.962 44.0604C76.962 45.841 75.514 47.289 73.7334 47.289C71.9529 47.289 70.5049 45.841 70.5049 44.0604C70.5049 42.2799 71.9529 40.8319 73.7334 40.8319ZM68.8906 56.9745C70.6712 56.9745 72.1192 55.5265 72.1192 53.746V50.2883C72.639 50.4239 73.1733 50.5175 73.7334 50.5175C74.2936 50.5175 74.8279 50.4239 75.3477 50.2883V55.3603C75.3477 58.0303 73.1749 60.2031 70.5049 60.2031H31.7626C30.8715 60.2031 30.1483 59.4799 30.1483 58.5888C30.1483 57.6977 30.8715 56.9745 31.7626 56.9745H51.7004H68.8906ZM32.3292 53.746L28.2936 50.5175H54.6044L50.5688 53.746H32.3292ZM64.0479 11.7752H57.5908V8.54665H64.0479V11.7752Z" fill="white"/>
<path d="M47.9052 24.6893H34.9911V34.3749H47.9052V24.6893ZM44.6767 31.1464H38.2196V27.9179H44.6767V31.1464Z" fill="white"/>
<path d="M67.7354 75.2024L70.9629 71.9748L73.2455 74.2574L70.0179 77.485L67.7354 75.2024Z" fill="white"/>
<path d="M54.8213 88.1147L66.1189 76.8172L68.4014 79.0997L57.1039 90.3973L54.8213 88.1147Z" fill="white"/>
<path d="M61.2799 68.7452L64.5075 65.5177L66.79 67.8003L63.5625 71.0278L61.2799 68.7452Z" fill="white"/>
<path d="M48.3658 81.6577L59.6634 70.3601L61.946 72.6427L50.6484 83.9403L48.3658 81.6577Z" fill="white"/>
<path d="M9.6283 74.251L11.9109 71.9684L15.1384 75.196L12.8559 77.4785L9.6283 74.251Z" fill="white"/>
<path d="M14.4696 79.0938L16.7522 76.8112L28.0497 88.1087L25.7672 90.3913L14.4696 79.0938Z" fill="white"/>
<path d="M16.0853 67.7955L18.3679 65.513L21.5954 68.7405L19.3129 71.0231L16.0853 67.7955Z" fill="white"/>
<path d="M20.9266 72.6383L23.2092 70.3557L34.5068 81.6533L32.2242 83.9359L20.9266 72.6383Z" fill="white"/>
</svg>
