<svg id="Layer_5" enable-background="new 0 0 64 64" height="512" viewBox="0 0 64 64" width="512" xmlns="http://www.w3.org/2000/svg"><g><path d="m23 46v10c0 1.105-.895 2-2 2-1.105 0-2-.895-2-2v-10z" fill="#f0bc5e"/><path d="m13 12h16v18h-16z" fill="#f0bc5e"/><g><path d="m32 57h-6v2h6c.552 0 1 .448 1 1s-.448 1-1 1h-22c-.552 0-1-.448-1-1s.448-1 1-1h3v-2h-3c-1.654 0-3 1.346-3 3s1.346 3 3 3h22c1.654 0 3-1.346 3-3s-1.346-3-3-3z"/><path d="m52 15c-.552 0-1-.448-1-1v-10c0-1.654-1.346-3-3-3s-3 1.346-3 3v14c0 .552-.448 1-1 1s-1-.448-1-1v-10c0-1.654-1.346-3-3-3h-3v-2h-6.184c-.414-1.161-1.514-2-2.816-2h-14c-1.654 0-3 1.346-3 3v7.184c-1.161.414-2 1.514-2 2.816v16.48l4.061 3.249c-.644.551-1.061 1.359-1.061 2.271 0 1.302.839 2.402 2 2.816v4.184h2v4h10v-4h2v-4h11c2.757 0 5-2.243 5-5v-4.382c.615-.703 1-1.612 1-2.618 0-2.206-1.794-4-4-4s-4 1.794-4 4c0 1.006.385 1.915 1 2.618v3.382h-8.149l3.149-2.52v-16.48c0-1.302-.839-2.402-2-2.816v-2.184h6v-2h3c.552 0 1 .448 1 1v10c0 1.654 1.346 3 3 3s3-1.346 3-3v-14c0-.552.448-1 1-1s1 .448 1 1v10c0 1.654 1.346 3 3 3h11v-2zm-23-11v7h-2v-8h1c.552 0 1 .448 1 1zm-4 1h-8v-2h8zm-8 2h8v4h-8zm-3-4h1v8h-2v-7c0-.552.448-1 1-1zm-2 10h18c.552 0 1 .448 1 1v15h-20v-15c0-.552.448-1 1-1zm12 32h-6v-2h6zm2-4h-10v-2h10zm15-16c1.103 0 2 .897 2 2s-.897 2-2 2-2-.897-2-2 .897-2 2-2zm-3 10c1.103 0 2-.897 2-2v-2.142c.322.084.653.142 1 .142s.678-.058 1-.142v3.142c0 1.654-1.346 3-3 3h-24c-.552 0-1-.448-1-1s.448-1 1-1h12.351zm-22.649-2-2.5-2h16.299l-2.5 2zm19.649-26h-4v-2h4z"/><path d="m25 15h-8v6h8zm-2 4h-4v-2h4z"/><path d="m37.586 45h2.828v2h-2.828z" transform="matrix(.707 -.707 .707 .707 -21.104 41.05)"/><path d="m28.55 50.5h9.899v2h-9.899z" transform="matrix(.707 -.707 .707 .707 -26.604 38.772)"/><path d="m33.586 41h2.828v2h-2.828z" transform="matrix(.707 -.707 .707 .707 -19.447 37.05)"/><path d="m24.55 46.5h9.899v2h-9.899z" transform="matrix(.707 -.707 .707 .707 -24.947 34.772)"/><path d="m2 44.586h2v2.828h-2z" transform="matrix(.707 -.707 .707 .707 -31.648 15.594)"/><path d="m7.5 46.55h2v9.899h-2z" transform="matrix(.707 -.707 .707 .707 -33.926 21.094)"/><path d="m6 40.586h2v2.828h-2z" transform="matrix(.707 -.707 .707 .707 -27.648 17.251)"/><path d="m11.5 42.55h2v9.899h-2z" transform="matrix(.707 -.707 .707 .707 -29.926 22.751)"/></g></g></svg>