<svg width="117" height="118" viewBox="0 0 117 118" fill="none" xmlns="http://www.w3.org/2000/svg">
<g clip-path="url(#clip0)">
<path d="M54.9803 68.9579V38.2869H35.6091C33.8254 38.2869 32.3806 39.7316 32.3806 41.5154V47.9724H38.8377C40.6214 47.9724 42.0662 49.4172 42.0662 51.201C42.0662 52.9847 40.6214 54.4295 38.8377 54.4295H32.3806V93.1718C32.3806 94.9556 33.8254 96.4003 35.6091 96.4003H66.8177L64.7127 83.7736C64.682 83.5831 64.6659 83.3894 64.6659 83.1957V82.1625C64.6659 80.219 66.2414 78.6434 68.185 78.6434H71.1229L73.7735 93.2235C73.8429 93.6012 73.9769 93.9515 74.1432 94.2792C74.2707 93.9337 74.3514 93.5625 74.3514 93.1718V68.9579H54.9803Z" fill="#FDB913"/>
<path d="M59.823 25.3728H46.9089V28.6013H59.823V25.3728Z" fill="white"/>
<path d="M66.2802 25.3728H63.0516V28.6013H66.2802V25.3728Z" fill="white"/>
<path d="M43.6804 25.3728H40.4519V28.6013H43.6804V25.3728Z" fill="white"/>
<path d="M58.2088 106.086H48.5232V109.314H58.2088V106.086Z" fill="white"/>
<path d="M108.251 31.8299H80.8084V26.9871C80.8084 22.5366 77.1877 18.9158 72.7371 18.9158H33.9948C29.5443 18.9158 25.9235 22.5366 25.9235 26.9871V46.3582H24.3093C21.8798 46.3582 19.4713 47.1605 17.5294 48.6182L14.0861 51.201H8.16663V80.2578H14.0861L17.5294 82.8406C19.4713 84.2982 21.8798 85.1005 24.3093 85.1005H29.152V58.2328C29.6266 57.5628 30.0254 56.83 30.3288 56.0438H38.8376C41.5076 56.0438 43.6804 53.871 43.6804 51.201C43.6804 48.531 41.5076 46.3582 38.8376 46.3582H29.152V35.0584H50.1375V31.8299H29.152V26.9871C29.152 24.3171 31.3248 22.1443 33.9948 22.1443H72.7371C75.4071 22.1443 77.5799 24.3171 77.5799 26.9871V31.8299H53.366V70.5722H75.9657V94.1065C75.6606 93.7933 75.4443 93.3914 75.3619 92.9362L72.4692 77.0292H68.1849C65.3551 77.0292 63.0516 79.3328 63.0516 82.1626V83.1941C63.0516 83.4782 63.0758 83.7623 63.121 84.0384L65.7199 99.6289H29.152V88.3291H25.9235V107.7C25.9235 112.151 29.5443 115.772 33.9948 115.772H72.7371V119H98.5653V113.194C98.5653 112.097 98.9415 111.024 99.6259 110.167L103.253 105.632C104.394 104.209 105.022 102.418 105.022 100.593V78.6435C105.022 75.9735 102.85 73.8007 100.18 73.8007C99.6114 73.8007 99.0722 73.9169 98.5653 74.0977V72.1864C98.5653 71.6182 98.4491 71.0791 98.2683 70.5722H108.251V31.8299ZM40.4519 51.201C40.4519 52.0905 39.7271 52.8153 38.8376 52.8153H27.8913L27.5862 54.0373C26.8146 57.1205 24.059 59.2723 20.8822 59.2723H19.4665V62.5009H20.8822C22.7014 62.5009 24.4287 62.0198 25.9235 61.1626V81.872H24.3093C22.5739 81.872 20.8531 81.299 19.4665 80.2578L15.1612 77.0292H11.3952V54.4296H15.1612L19.4665 51.201C20.8531 50.1598 22.5739 49.5868 24.3093 49.5868H38.8376C39.7271 49.5868 40.4519 50.3116 40.4519 51.201ZM91.921 67.6988C91.3641 65.6406 89.498 64.1151 87.2655 64.1151C86.6973 64.1151 86.1581 64.2314 85.6512 64.4122V56.8881C86.1484 56.7266 86.6311 56.5345 87.1057 56.3279L101.794 67.3437H93.7225C93.0849 67.3437 92.4796 67.4744 91.921 67.6988ZM76.6146 53.6676C74.5919 52.9428 72.792 51.7434 71.3747 50.0904L58.4897 35.0584H103.126L90.2406 50.0904C88.8233 51.7434 87.025 52.9444 85.0023 53.6692C84.1693 52.2035 82.6116 51.201 80.8084 51.201C79.0053 51.201 77.4476 52.2035 76.6146 53.6676ZM68.9242 52.1922C69.691 53.0881 70.5498 53.8791 71.4764 54.5684L56.5945 65.7294V37.8075L68.9242 52.1922ZM90.1405 54.5684C91.0671 53.8791 91.9259 53.0881 92.6926 52.1922L105.022 37.8075V65.7294L90.1405 54.5684ZM59.823 67.3437L74.5112 56.3279C74.9858 56.5362 75.4685 56.7283 75.9657 56.8897V67.3437H59.823ZM29.152 107.7V102.857H66.406C66.7062 103.694 67.1292 104.483 67.6861 105.179L71.6782 110.168C72.2254 110.853 72.566 111.679 72.6839 112.543H33.9948C31.3248 112.543 29.152 110.37 29.152 107.7ZM95.3368 72.1864V78.6435V94.7861H98.5653V78.6435C98.5653 77.754 99.2901 77.0292 100.18 77.0292C101.069 77.0292 101.794 77.754 101.794 78.6435V100.593C101.794 101.689 101.418 102.762 100.733 103.619L97.106 108.154C95.9648 109.578 95.3368 111.368 95.3368 113.194V115.772H75.9657V113.194C75.9657 111.368 75.3377 109.578 74.1964 108.151L70.2044 103.161C69.6894 102.517 69.344 101.747 69.2084 100.932L66.3043 83.504C66.2882 83.4023 66.2801 83.299 66.2801 83.1941V82.1626C66.2801 81.1117 67.134 80.2578 68.1849 80.2578H69.775L72.1851 93.5125C72.6613 96.1211 74.9293 98.0146 77.5799 98.0146H79.1942V56.0438C79.1942 55.1544 79.919 54.4296 80.8084 54.4296C81.6979 54.4296 82.4227 55.1544 82.4227 56.0438V68.9579V88.3291V94.7861H85.6512V88.3291V68.9579C85.6512 68.0685 86.376 67.3437 87.2655 67.3437C88.155 67.3437 88.8798 68.0685 88.8798 68.9579V72.1864V94.7861H92.1083V72.1864C92.1083 71.297 92.8331 70.5722 93.7225 70.5722C94.612 70.5722 95.3368 71.297 95.3368 72.1864Z" fill="white"/>
<path d="M59.8231 73.8008H38.8376V77.0293H59.8231V73.8008Z" fill="white"/>
<path d="M59.8231 80.2576H38.8376V83.4861H59.8231V80.2576Z" fill="white"/>
<path d="M59.8231 86.7146H38.8376V89.9431H59.8231V86.7146Z" fill="white"/>
</g>
<defs>
<clipPath id="clip0">
<rect x="0.105347" y="0.897461" width="116.762" height="116.762" fill="white"/>
</clipPath>
</defs>
</svg>
