<svg width="104" height="103" viewBox="0 0 104 103" fill="none" xmlns="http://www.w3.org/2000/svg">
<path d="M68.25 9.65625V3.21875C68.25 2.32877 67.5236 1.60938 66.625 1.60938H58.5C57.6842 1.60938 56.9952 2.20806 56.8896 3.00792L48.7646 64.1642C48.7549 64.235 48.75 64.3042 48.75 64.375V67.5938C48.75 67.8432 48.8085 68.091 48.9206 68.3131L52.1706 74.7506L68.25 74.0312V67.5938C68.25 67.1657 68.0794 66.7569 67.7739 66.4559L65.6728 64.375L67.7739 62.2941C68.4092 61.6648 68.4092 60.6477 67.7739 60.0184L65.6728 57.9375L67.7739 55.8566C68.4092 55.2273 68.4092 54.2102 67.7739 53.5809L65.6728 51.5L67.7739 49.4191C68.4092 48.7898 68.4092 47.7727 67.7739 47.1434L65.6728 45.0625L67.7739 42.9816C68.4092 42.3523 68.4092 41.3352 67.7739 40.7059L65.6728 38.625L67.7739 36.5441C68.4092 35.9148 68.4092 34.8977 67.7739 34.2684L65.6728 32.1875L67.7739 30.1066C68.4092 29.4773 68.4092 28.4602 67.7739 27.8309L65.6728 25.75L67.7739 23.6691C68.4092 23.0398 68.4092 22.0227 67.7739 21.3934L65.6728 19.3125L67.7739 17.2316C68.4092 16.6023 68.4092 15.5852 67.7739 14.9559L65.6728 12.875L67.7739 10.7941C68.0794 10.4931 68.25 10.0843 68.25 9.65625Z" fill="#FDB913"/>
<path d="M94.25 35.4063V28.9688L78.1706 28.2494L74.9206 34.6869C74.8085 34.909 74.75 35.1568 74.75 35.4063V38.625C74.75 38.6958 74.7549 38.765 74.7646 38.8359L82.8896 99.9921C82.9952 100.792 83.6843 101.391 84.5 101.391H92.625C93.5236 101.391 94.25 100.671 94.25 99.7813V93.3438C94.25 92.9157 94.0794 92.5069 93.7739 92.206L91.6728 90.125L93.7739 88.0441C94.4093 87.4149 94.4093 86.3977 93.7739 85.7685L91.6728 83.6875L93.7739 81.6066C94.4093 80.9773 94.4093 79.9602 93.7739 79.331L91.6728 77.25L93.7739 75.1691C94.4093 74.5399 94.4093 73.5227 93.7739 72.8935L91.6728 70.8125L93.7739 68.7316C94.4093 68.1024 94.4093 67.0852 93.7739 66.456L91.6728 64.375L93.7739 62.2941C94.4093 61.6648 94.4093 60.6477 93.7739 60.0185L91.6728 57.9375L93.7739 55.8566C94.4093 55.2273 94.4093 54.2102 93.7739 53.581L91.6728 51.5L93.7739 49.4191C94.4093 48.7898 94.4093 47.7727 93.7739 47.1435L91.6728 45.0625L93.7739 42.9816C94.4093 42.3523 94.4093 41.3352 93.7739 40.706L91.6728 38.625L93.7739 36.5441C94.0794 36.2432 94.25 35.8344 94.25 35.4063Z" fill="#FDB913"/>
<path d="M52 93.3438C52 97.7808 55.6449 101.391 60.125 101.391C64.6051 101.391 68.25 97.7808 68.25 93.3438V89.1304L65 87.521V83.0727L68.25 81.4633V72.4219H52V93.3438ZM55.25 75.6406H65V79.4742L61.75 81.0835V89.5102L65 91.1196V93.3438C65 96.0057 62.8127 98.1719 60.125 98.1719C57.4373 98.1719 55.25 96.0057 55.25 93.3438V75.6406Z" fill="white"/>
<path d="M94.25 13.8696V9.65625C94.25 5.2192 90.6051 1.60938 86.125 1.60938C81.6449 1.60938 78 5.2192 78 9.65625V30.5781H94.25V21.5367L91 19.9273V15.479L94.25 13.8696ZM91 23.5258V27.3594H81.25V9.65625C81.25 6.99434 83.4373 4.82812 86.125 4.82812C88.8127 4.82812 91 6.99434 91 9.65625V11.8804L87.75 13.4898V21.9165L91 23.5258Z" fill="white"/>
<path d="M42.0127 69.4268L28.9689 1.60938H13V63.8809C11.0516 65.1217 9.75 67.2783 9.75 69.739V95.2299C9.75 98.6257 12.5418 101.391 15.9705 101.391C17.6312 101.391 19.1945 100.75 20.3694 99.5865L24.1784 95.8141C24.7309 95.267 25.4963 94.9531 26.2795 94.9531H40.625C43.3128 94.9531 45.5 92.7869 45.5 90.125V74.0312C45.5 71.8489 44.0229 70.0223 42.0127 69.4268ZM16.25 4.82812H19.7795L30.4801 60.4658L33.6733 59.8623L23.0896 4.82812H26.2811L38.662 69.2031H35.4705L34.1754 62.4631L30.9823 63.0666L32.1604 69.2031H27.0839C25.8976 69.2031 24.7618 68.6415 24.05 67.7016L22.425 65.5531C21.1006 63.8069 18.9946 62.7656 16.7911 62.7656C16.6059 62.7656 16.432 62.8059 16.25 62.8203V4.82812ZM42.25 90.125C42.25 91.0134 41.522 91.7344 40.625 91.7344H26.2795C24.6188 91.7344 23.0555 92.3749 21.8806 93.5385L18.0716 97.3109C17.5191 97.858 16.7538 98.1719 15.9705 98.1719C14.3325 98.1719 13 96.8522 13 95.2299V69.739C13 67.6694 14.7014 65.9844 16.7911 65.9844C17.9774 65.9844 19.1132 66.546 19.825 67.4859L21.45 69.6344C22.7744 71.3806 24.8804 72.4219 27.0839 72.4219H40.625C41.522 72.4219 42.25 73.1429 42.25 74.0312V90.125Z" fill="white"/>
<path d="M16.25 88.5156H39V75.6406H16.25V88.5156ZM19.5 78.8594H35.75V85.2969H19.5V78.8594Z" fill="white"/>
</svg>
