<?xml version="1.0" encoding="iso-8859-1"?>
<!-- Generator: Adobe Illustrator 22.0.0, SVG Export Plug-In . SVG Version: 6.00 Build 0)  -->
<svg xmlns="http://www.w3.org/2000/svg" xmlns:xlink="http://www.w3.org/1999/xlink" version="1.1" id="Layer_4" x="0px" y="0px" viewBox="0 0 64 64" style="enable-background:new 0 0 64 64;" xml:space="preserve" width="512" height="512">
<g>
	<g>
		<path style="fill:#F0BC5E;" d="M42,6V2c0-0.553-0.447-1-1-1h-5c-0.502,0-0.926,0.372-0.991,0.869l-5,38    C30.003,39.913,30,39.956,30,40v2c0,0.155,0.036,0.309,0.105,0.447l2,4L42,46v-4c0-0.266-0.105-0.52-0.293-0.707L40.414,40    l1.293-1.293c0.391-0.391,0.391-1.023,0-1.414L40.414,36l1.293-1.293c0.391-0.391,0.391-1.023,0-1.414L40.414,32l1.293-1.293    c0.391-0.391,0.391-1.023,0-1.414L40.414,28l1.293-1.293c0.391-0.391,0.391-1.023,0-1.414L40.414,24l1.293-1.293    c0.391-0.391,0.391-1.023,0-1.414L40.414,20l1.293-1.293c0.391-0.391,0.391-1.023,0-1.414L40.414,16l1.293-1.293    c0.391-0.391,0.391-1.023,0-1.414L40.414,12l1.293-1.293c0.391-0.391,0.391-1.023,0-1.414L40.414,8l1.293-1.293    C41.895,6.52,42,6.266,42,6z"/>
	</g>
	<g>
		<path style="fill:#F0BC5E;" d="M58,22v-4l-9.895-0.447l-2,4C46.036,21.691,46,21.845,46,22v2c0,0.044,0.003,0.087,0.009,0.131    l5,38C51.074,62.628,51.498,63,52,63h5c0.553,0,1-0.447,1-1v-4c0-0.266-0.105-0.52-0.293-0.707L56.414,56l1.293-1.293    c0.391-0.391,0.391-1.023,0-1.414L56.414,52l1.293-1.293c0.391-0.391,0.391-1.023,0-1.414L56.414,48l1.293-1.293    c0.391-0.391,0.391-1.023,0-1.414L56.414,44l1.293-1.293c0.391-0.391,0.391-1.023,0-1.414L56.414,40l1.293-1.293    c0.391-0.391,0.391-1.023,0-1.414L56.414,36l1.293-1.293c0.391-0.391,0.391-1.023,0-1.414L56.414,32l1.293-1.293    c0.391-0.391,0.391-1.023,0-1.414L56.414,28l1.293-1.293c0.391-0.391,0.391-1.023,0-1.414L56.414,24l1.293-1.293    C57.895,22.52,58,22.266,58,22z"/>
	</g>
	<g>
		<path d="M32,58c0,2.757,2.243,5,5,5s5-2.243,5-5v-2.618l-2-1v-2.764l2-1V45H32V58z M34,47h6v2.382l-2,1v5.236l2,1V58    c0,1.654-1.346,3-3,3s-3-1.346-3-3V47z"/>
		<path d="M58,8.618V6c0-2.757-2.243-5-5-5s-5,2.243-5,5v13h10v-5.618l-2-1V9.618L58,8.618z M56,14.618V17h-6V6c0-1.654,1.346-3,3-3    s3,1.346,3,3v1.382l-2,1v5.236L56,14.618z"/>
		<path d="M25.854,43.139L17.827,1H8v38.693c-1.199,0.771-2,2.111-2,3.64v15.839C6,61.282,7.718,63,9.828,63    c1.022,0,1.984-0.398,2.707-1.121l2.344-2.344C15.219,59.195,15.69,59,16.172,59H25c1.654,0,3-1.346,3-3V46    C28,44.644,27.091,43.509,25.854,43.139z M10,3h2.172l6.585,34.571l1.965-0.375L14.209,3h1.964l7.619,40h-1.964l-0.797-4.188    l-1.965,0.375L19.791,43h-3.124c-0.73,0-1.429-0.349-1.867-0.933l-1-1.335C12.985,39.647,11.689,39,10.333,39    c-0.114,0-0.221,0.025-0.333,0.034V3z M26,56c0,0.552-0.448,1-1,1h-8.828c-1.022,0-1.984,0.398-2.707,1.121l-2.344,2.344    C10.781,60.805,10.31,61,9.828,61C8.82,61,8,60.18,8,59.172V43.333C8,42.047,9.047,41,10.333,41c0.73,0,1.429,0.349,1.867,0.933    l1,1.335C14.015,44.353,15.311,45,16.667,45H25c0.552,0,1,0.448,1,1V56z"/>
		<path d="M10,55h14v-8H10V55z M12,49h10v4H12V49z"/>
	</g>
</g>
</svg>
