<svg width="142" height="143" viewBox="0 0 142 143" fill="none" xmlns="http://www.w3.org/2000/svg">
<path d="M26.1065 73.7938H80.8215H100.363V69.8856H86.3243C86.5431 69.272 86.6838 68.6193 86.6838 67.9315V64.0233C86.6838 61.3208 84.8372 59.0618 82.3457 58.3876C82.6173 57.7115 82.7756 56.9787 82.7756 56.2069V52.2986C82.7756 49.5961 80.929 47.3372 78.4375 46.663C78.7091 45.9869 78.8674 45.2541 78.8674 44.4822V40.574C78.8674 37.3419 76.2372 34.7117 73.0051 34.7117H49.5558C46.3237 34.7117 43.6935 37.3419 43.6935 40.574V44.4822C43.6935 45.1701 43.8342 45.8227 44.053 46.4363H37.8311C34.599 46.4363 31.9688 49.0665 31.9688 52.2986V56.2069C31.9688 56.8947 32.1095 57.5474 32.3284 58.161H26.1065C22.8744 58.161 20.2442 60.7912 20.2442 64.0233V67.9315C20.2442 68.6193 20.3849 69.272 20.6037 69.8856H14.3818C12.2265 69.8856 10.4736 71.6384 10.4736 73.7938V77.702C10.4736 79.8574 12.2265 81.6103 14.3818 81.6103H16.9671L27.4372 107.786L31.066 106.336L21.1763 81.6103H100.363V77.702H14.3818V73.7938H26.1065ZM39.7852 62.0692H51.5099V69.8856H39.7852V62.0692ZM51.5099 50.3445H63.2345V58.161H51.5099V50.3445ZM67.1428 62.0692V69.8856H55.4181V62.0692H67.1428ZM82.7756 67.9315C82.7756 69.0082 81.8982 69.8856 80.8215 69.8856H71.051V62.0692H76.9133H80.8215C81.8982 62.0692 82.7756 62.9466 82.7756 64.0233V67.9315ZM78.8674 56.2069C78.8674 57.2836 77.99 58.161 76.9133 58.161H67.1428V50.3445H73.0051H76.9133C77.99 50.3445 78.8674 51.2219 78.8674 52.2986V56.2069ZM74.9592 40.574V44.4822C74.9592 45.5589 74.0818 46.4363 73.0051 46.4363H63.2345V38.6199H73.0051C74.0818 38.6199 74.9592 39.4973 74.9592 40.574ZM47.6017 44.4822V40.574C47.6017 39.4973 48.4791 38.6199 49.5558 38.6199H59.3263V46.4363H49.5558C48.4791 46.4363 47.6017 45.5589 47.6017 44.4822ZM35.877 56.2069V52.2986C35.877 51.2219 36.7544 50.3445 37.8311 50.3445H47.6017V58.161H37.8311C36.7544 58.161 35.877 57.2836 35.877 56.2069ZM24.1524 67.9315V64.0233C24.1524 62.9466 25.0298 62.0692 26.1065 62.0692H35.877V69.8856H26.1065C25.0298 69.8856 24.1524 69.0082 24.1524 67.9315Z" fill="white"/>
<path d="M83.6652 104.759L87.136 85.3536L90.9817 86.0414L87.5108 105.447L83.6652 104.759Z" fill="white"/>
<path d="M28.0605 85.5184H31.9688V89.4266H28.0605V85.5184Z" fill="white"/>
<path d="M35.8771 85.5184H39.7853V89.4266H35.8771V85.5184Z" fill="white"/>
<path d="M43.6935 85.5184H47.6017V89.4266H43.6935V85.5184Z" fill="white"/>
<path d="M47.6075 113.691C47.1112 112.608 46.5191 111.559 45.8488 110.574L49.0809 108.376C49.8723 109.542 50.5719 110.779 51.1581 112.061L47.6075 113.691ZM43.5977 107.793C42.7711 106.93 41.8702 106.13 40.9186 105.419L43.2577 102.289C44.3813 103.129 45.4463 104.071 46.4214 105.091L43.5977 107.793ZM37.8858 103.524C36.8247 102.978 35.7109 102.517 34.5775 102.158L35.7637 98.4331C37.1042 98.8611 38.4173 99.4043 39.6719 100.047L37.8858 103.524Z" fill="white"/>
<path d="M43.1991 116.784H92.5462V120.692H43.1991V116.784Z" fill="white"/>
<path d="M69.0968 118.738H68.9933L69.0968 118.889V118.738Z" fill="#FDB913"/>
<path d="M125.768 52.2986H106.235C106.229 52.2986 106.225 52.2986 106.219 52.2986C104.253 52.2986 102.59 53.772 102.348 55.7222L89.2985 128.857C89.1832 129.771 88.4015 130.463 87.4772 130.463C86.8715 130.463 86.3067 130.166 85.9648 129.666L79.8113 120.692H70.3339L79.3814 133.886C80.7121 135.829 82.6447 137.347 84.9232 137.945C90.8168 139.493 96.3489 135.471 97.0543 129.826L109.676 60.115H125.768C127.927 60.115 129.676 58.3661 129.676 56.2068C129.676 54.0475 127.925 52.2986 125.768 52.2986V52.2986Z" fill="#FDB913"/>
<path d="M28.0606 140.234C18.3643 140.234 10.4736 132.345 10.4736 122.647C10.4736 112.948 18.3643 105.06 28.0606 105.06C37.7569 105.06 45.6476 112.948 45.6476 122.647C45.6476 132.345 37.7569 140.234 28.0606 140.234ZM28.0606 114.83C23.7498 114.83 20.2442 118.338 20.2442 122.647C20.2442 126.955 23.7498 130.463 28.0606 130.463C32.3714 130.463 35.877 126.955 35.877 122.647C35.877 118.338 32.3714 114.83 28.0606 114.83Z" fill="#FDB913"/>
<path d="M28.0606 132.417C22.6731 132.417 18.29 128.034 18.29 122.647C18.29 117.259 22.6731 112.876 28.0606 112.876C33.4481 112.876 37.8311 117.259 37.8311 122.647C37.8311 128.034 33.4481 132.417 28.0606 132.417ZM28.0606 116.784C24.8285 116.784 22.1983 119.414 22.1983 122.647C22.1983 125.879 24.8285 128.509 28.0606 128.509C31.2927 128.509 33.9229 125.879 33.9229 122.647C33.9229 119.414 31.2927 116.784 28.0606 116.784Z" fill="white"/>
<path d="M82.2609 112.603L82.9632 108.676L86.8088 109.364L86.1065 113.29L82.2609 112.603Z" fill="white"/>
</svg>
