<svg id="Layer_5" enable-background="new 0 0 64 64" height="512" viewBox="0 0 64 64" width="512" xmlns="http://www.w3.org/2000/svg"><g><g><path d="m9 25h28 10v-2h-7.184c.112-.314.184-.648.184-1v-2c0-1.383-.945-2.539-2.22-2.884.139-.346.22-.721.22-1.116v-2c0-1.383-.945-2.539-2.22-2.884.139-.346.22-.721.22-1.116v-2c0-1.654-1.346-3-3-3h-12c-1.654 0-3 1.346-3 3v2c0 .352.072.686.184 1h-3.184c-1.654 0-3 1.346-3 3v2c0 .352.072.686.184 1h-3.184c-1.654 0-3 1.346-3 3v2c0 .352.072.686.184 1h-3.184c-1.103 0-2 .897-2 2v2c0 1.103.897 2 2 2h1.323l5.358 13.395 1.857-.742-5.061-12.653h40.523v-2h-44v-2zm7-6h6v4h-6zm6-6h6v4h-6zm8 6v4h-6v-4zm8 3c0 .551-.449 1-1 1h-5v-4h3 2c.551 0 1 .449 1 1zm-2-6c0 .551-.449 1-1 1h-5v-4h3 2c.551 0 1 .449 1 1zm-2-8v2c0 .551-.449 1-1 1h-5v-4h5c.551 0 1 .449 1 1zm-14 2v-2c0-.551.449-1 1-1h5v4h-5c-.551 0-1-.449-1-1zm-6 6v-2c0-.551.449-1 1-1h5v4h-5c-.551 0-1-.449-1-1zm-6 6v-2c0-.551.449-1 1-1h5v4h-5c-.551 0-1-.449-1-1z"/><path d="m35.288 35.032h10.092v2h-10.092z" transform="matrix(.176 -.984 .984 .176 -2.227 69.404)"/><path d="m10 31h2v2h-2z"/><path d="m14 31h2v2h-2z"/><path d="m18 31h2v2h-2z"/></g><g><path d="m20.003 45.417c-.254-.554-.557-1.091-.9-1.595l1.654-1.125c.405.597.763 1.23 1.063 1.886zm-2.052-3.018c-.423-.442-.884-.851-1.371-1.215l1.197-1.602c.575.43 1.12.912 1.619 1.434zm-2.923-2.185c-.543-.279-1.113-.515-1.693-.699l.607-1.906c.686.219 1.358.497 2 .826z"/></g><g><path d="m17.747 47h25.253v2h-25.253z"/></g><g fill="#f0bc5e"><path d="m31 48h-.053l.053.077z"/><path d="m60.001 14h-9.996c-.003 0-.005 0-.008 0-1.006 0-1.857.754-1.981 1.752l-6.678 37.426c-.059.468-.459.822-.932.822-.31 0-.599-.152-.774-.408l-3.149-4.592h-4.85l4.63 6.752c.681.994 1.67 1.771 2.836 2.077 3.016.792 5.847-1.266 6.208-4.155l6.459-35.674h8.235c1.105 0 2-.895 2-2s-.896-2-2-2z"/></g><g><path d="m10 59c-4.962 0-9-4.037-9-9s4.038-9 9-9 9 4.037 9 9-4.038 9-9 9zm0-13c-2.206 0-4 1.795-4 4s1.794 4 4 4 4-1.795 4-4-1.794-4-4-4z" fill="#f0bc5e"/></g><g><path d="m10 55c-2.757 0-5-2.243-5-5s2.243-5 5-5 5 2.243 5 5-2.243 5-5 5zm0-8c-1.654 0-3 1.346-3 3s1.346 3 3 3 3-1.346 3-3-1.346-3-3-3z"/></g><g><path d="m37.89 43.005h2.042v2h-2.042z" transform="matrix(.176 -.984 .984 .176 -11.249 74.575)"/></g></g></svg>